<svg width="40" height="23" viewBox="0 0 40 23" xmlns="http://www.w3.org/2000/svg" xmlns:sketch="http://www.bohemiancoding.com/sketch/ns"><title>VK</title><desc>Created with Sketch.</desc><path d="M21.148 22.917c1.318 0 1.318-1.835 1.318-2.546 0-1.273 1.318-2.546 2.637-2.546 1.318 0 3.579 2.183 5.273 3.82 1.318 1.273 1.318 1.273 2.637 1.273h3.955s2.637-.097 2.637-2.546c0-.796-.903-2.145-3.955-5.093-2.637-2.546-3.989-1.231 0-6.366 2.43-3.127 4.198-5.96 3.894-6.777-.29-.78-7.048-2.023-7.849-.862-2.637 3.82-3.121 4.755-3.955 6.366-1.318 2.546-1.449 3.82-2.637 3.82-1.198 0-1.318-2.471-1.318-3.82 0-4.209.631-7.186-1.318-7.639h-3.955c-2.123 0-3.955 1.273-3.955 1.273s-1.636 1.232-1.318 1.273c.393.051 2.637-.527 2.637 1.273v2.546s.012 5.093-1.318 5.093c-1.318 0-3.955-5.093-6.592-8.912-1.035-1.499-1.318-1.273-2.637-1.273l-3.955.053c-1.318 0-1.487.811-1.318 1.22 2.637 6.366 4.531 10.364 9.541 15.4 4.594 4.62 7.664 4.866 10.234 4.97h1.318z" sketch:type="MSShapeGroup" fill="#2E2730"/></svg>